<mxfile host="65bd71144e">
    <diagram id="vRvgWaPE9UPtqLKHQ1XY" name="Purpose">
        <mxGraphModel dx="315" dy="764" grid="1" gridSize="10" guides="1" tooltips="1" connect="1" arrows="1" fold="1" page="1" pageScale="1" pageWidth="827" pageHeight="1169" math="0" shadow="0">
            <root>
                <mxCell id="0"/>
                <mxCell id="1" parent="0"/>
                <mxCell id="17" value="" style="shape=actor;whiteSpace=wrap;html=1;" vertex="1" parent="1">
                    <mxGeometry x="334" y="370" width="40" height="60" as="geometry"/>
                </mxCell>
                <mxCell id="18" value="Books" style="ellipse;shape=cloud;whiteSpace=wrap;html=1;" vertex="1" parent="1">
                    <mxGeometry x="140" y="220" width="120" height="80" as="geometry"/>
                </mxCell>
                <mxCell id="19" value="Book Purchase" style="ellipse;shape=cloud;whiteSpace=wrap;html=1;" vertex="1" parent="1">
                    <mxGeometry x="294" y="220" width="120" height="80" as="geometry"/>
                </mxCell>
                <mxCell id="20" value="Book Reading" style="ellipse;shape=cloud;whiteSpace=wrap;html=1;" vertex="1" parent="1">
                    <mxGeometry x="480" y="220" width="120" height="80" as="geometry"/>
                </mxCell>
            </root>
        </mxGraphModel>
    </diagram>
    <diagram id="HJBrMixForOItj5XgMJZ" name="ER">
        <mxGraphModel dx="589" dy="764" grid="1" gridSize="10" guides="1" tooltips="1" connect="1" arrows="1" fold="1" page="1" pageScale="1" pageWidth="827" pageHeight="1169" math="0" shadow="0">
            <root>
                <mxCell id="9a9eVUuywGns-ULkhb9i-0"/>
                <mxCell id="9a9eVUuywGns-ULkhb9i-1" parent="9a9eVUuywGns-ULkhb9i-0"/>
                <mxCell id="9a9eVUuywGns-ULkhb9i-16" style="edgeStyle=none;html=1;exitX=1;exitY=1;exitDx=0;exitDy=0;entryX=0;entryY=0.5;entryDx=0;entryDy=0;startArrow=ERmany;startFill=0;endArrow=none;endFill=0;" edge="1" parent="9a9eVUuywGns-ULkhb9i-1" source="9a9eVUuywGns-ULkhb9i-3" target="9a9eVUuywGns-ULkhb9i-10">
                    <mxGeometry relative="1" as="geometry"/>
                </mxCell>
                <mxCell id="9a9eVUuywGns-ULkhb9i-3" value="Book" style="whiteSpace=wrap;html=1;" vertex="1" parent="9a9eVUuywGns-ULkhb9i-1">
                    <mxGeometry x="60" y="720" width="150" height="190" as="geometry"/>
                </mxCell>
                <mxCell id="9a9eVUuywGns-ULkhb9i-5" value="Book Purchase" style="whiteSpace=wrap;html=1;" vertex="1" parent="9a9eVUuywGns-ULkhb9i-1">
                    <mxGeometry x="280" y="570" width="120" height="60" as="geometry"/>
                </mxCell>
                <mxCell id="9a9eVUuywGns-ULkhb9i-6" value="Book Reading" style="whiteSpace=wrap;html=1;" vertex="1" parent="9a9eVUuywGns-ULkhb9i-1">
                    <mxGeometry x="75" y="1000" width="120" height="60" as="geometry"/>
                </mxCell>
                <mxCell id="9a9eVUuywGns-ULkhb9i-13" style="edgeStyle=none;html=1;exitX=0;exitY=0.5;exitDx=0;exitDy=0;entryX=1.007;entryY=0.358;entryDx=0;entryDy=0;entryPerimeter=0;startArrow=none;startFill=0;endArrow=ERmany;endFill=0;" edge="1" parent="9a9eVUuywGns-ULkhb9i-1" source="9a9eVUuywGns-ULkhb9i-8" target="9a9eVUuywGns-ULkhb9i-3">
                    <mxGeometry relative="1" as="geometry"/>
                </mxCell>
                <mxCell id="9a9eVUuywGns-ULkhb9i-14" style="edgeStyle=none;html=1;exitX=1;exitY=0.5;exitDx=0;exitDy=0;entryX=-0.012;entryY=0.367;entryDx=0;entryDy=0;startArrow=none;startFill=0;endArrow=ERmany;endFill=0;entryPerimeter=0;" edge="1" parent="9a9eVUuywGns-ULkhb9i-1" source="9a9eVUuywGns-ULkhb9i-8" target="9a9eVUuywGns-ULkhb9i-11">
                    <mxGeometry relative="1" as="geometry"/>
                </mxCell>
                <mxCell id="9a9eVUuywGns-ULkhb9i-8" value="buy book" style="rhombus;whiteSpace=wrap;html=1;" vertex="1" parent="9a9eVUuywGns-ULkhb9i-1">
                    <mxGeometry x="290" y="750" width="80" height="80" as="geometry"/>
                </mxCell>
                <mxCell id="9a9eVUuywGns-ULkhb9i-17" style="edgeStyle=none;html=1;exitX=1;exitY=0.5;exitDx=0;exitDy=0;entryX=0;entryY=1;entryDx=0;entryDy=0;startArrow=none;startFill=0;endArrow=ERmany;endFill=0;" edge="1" parent="9a9eVUuywGns-ULkhb9i-1" source="9a9eVUuywGns-ULkhb9i-10" target="9a9eVUuywGns-ULkhb9i-11">
                    <mxGeometry relative="1" as="geometry"/>
                </mxCell>
                <mxCell id="9a9eVUuywGns-ULkhb9i-10" value="read book" style="rhombus;whiteSpace=wrap;html=1;" vertex="1" parent="9a9eVUuywGns-ULkhb9i-1">
                    <mxGeometry x="290" y="870" width="80" height="80" as="geometry"/>
                </mxCell>
                <mxCell id="9a9eVUuywGns-ULkhb9i-11" value="User" style="rounded=0;whiteSpace=wrap;html=1;" vertex="1" parent="9a9eVUuywGns-ULkhb9i-1">
                    <mxGeometry x="460" y="720" width="170" height="180" as="geometry"/>
                </mxCell>
            </root>
        </mxGraphModel>
    </diagram>
</mxfile>